<?xml version="1.0" encoding="UTF-8" standalone="no"?>
<!DOCTYPE svg PUBLIC "-//W3C//DTD SVG 1.1//EN" "http://www.w3.org/Graphics/SVG/1.1/DTD/svg11.dtd">
<svg width="100%" height="100%" viewBox="0 0 1280 720" version="1.1" xmlns="http://www.w3.org/2000/svg" xmlns:xlink="http://www.w3.org/1999/xlink" xml:space="preserve" xmlns:serif="http://www.serif.com/" style="fill-rule:evenodd;clip-rule:evenodd;stroke-linejoin:round;stroke-miterlimit:2;">
    <g transform="matrix(15.9167,0,0,15.9167,640,271)">
        <g transform="matrix(1,0,0,1,-12,-12)">
            <path d="M18,2C19.097,2 20,2.903 20,4L20,20C20,21.097 19.097,22 18,22L6,22C4.903,22 4,21.097 4,20L4,4C4,2.903 4.903,2 6,2L18,2M18,4L13,4L13,12L10.5,9.75L8,12L8,4L6,4L6,20L18,20L18,4Z" style="fill:white;fill-rule:nonzero;"/>
        </g>
    </g>
</svg>
