<?xml version="1.0" encoding="UTF-8" standalone="no"?><!DOCTYPE svg PUBLIC "-//W3C//DTD SVG 1.1//EN" "http://www.w3.org/Graphics/SVG/1.1/DTD/svg11.dtd"><svg width="100%" height="100%" viewBox="0 0 3200 3200" version="1.1" xmlns="http://www.w3.org/2000/svg" xmlns:xlink="http://www.w3.org/1999/xlink" xml:space="preserve" xmlns:serif="http://www.serif.com/" style="fill-rule:evenodd;clip-rule:evenodd;stroke-linejoin:round;stroke-miterlimit:2;"><path d="M1054.49,270.313c-252.299,-0 -456.867,204.567 -456.867,456.866c0,252.3 204.568,456.867 456.867,456.867l208.659,0c53.187,0 103.647,13.638 147.288,40.914l275.484,-0c-79.099,-143.197 -241.389,-238.662 -422.772,-238.662l-208.659,0c-136.378,0 -252.299,-133.651 -252.299,-272.756c-0,-139.106 115.921,-238.662 252.299,-238.662l0,-204.567m661.434,68.189c0,136.378 -115.921,252.299 -252.299,252.299l-0,204.568c261.846,-0 477.324,184.11 530.511,429.591l208.659,-0c-40.914,-249.572 -199.113,-456.867 -418.681,-561.878c84.554,-83.191 136.378,-197.749 136.378,-324.58l-204.568,-0m-1343.33,1091.03l0,272.757l272.757,-0l-0,954.647c-0,151.38 122.74,272.756 272.756,272.756l1363.78,0c151.38,0 272.756,-121.376 272.756,-272.756l0,-954.647l272.757,-0l-0,-272.757l-2454.81,0m545.513,272.757l1363.78,-0l0,954.647l-1363.78,0l-0,-954.647Z" style="fill:#fff;fill-rule:nonzero;"/></svg>